<svg id="Слой_1" data-name="Слой 1" xmlns="http://www.w3.org/2000/svg" viewBox="0 0 227.5 44.93"><path d="M191.7,73.18c3,4.5,6,9,9.1,13.64h-3.2a2.46,2.46,0,0,1-2.5-1.54c-2.1-3.74-4.4-7.47-6.6-11.2a1.25,1.25,0,0,0-1.2-.78h-9.5V86.56h-4.3V55h.9c4.9,0,10.1-.13,15.1,0a10.72,10.72,0,0,1,6.7,2.06,8.16,8.16,0,0,1,3.8,6.56,7.66,7.66,0,0,1-2.9,6.69,11.17,11.17,0,0,1-2.6,1.55A11.83,11.83,0,0,1,191.7,73.18Zm-13.9-2.45c.2,0,.3.13.5.13,3.8,0,7.5.13,11.3-.13a7.67,7.67,0,0,0,3.6-1.29,5.53,5.53,0,0,0,2.6-5.15A6,6,0,0,0,193.3,59a7.4,7.4,0,0,0-4.4-1.55H178.6a2,2,0,0,0-.8.13Z" transform="translate(-11.7 -47.18)"/><path d="M92.1,69.19v2.44h-16V84.37H95.6v2.45H71.8V55.15H95.1v2.32h-19V69.31C81.4,69.19,86.7,69.19,92.1,69.19Z" transform="translate(-11.7 -47.18)"/><path d="M104.2,82.44c.7-.77,1.4-1.41,2-2.06,5,4.25,10.3,5.67,16,3.74a7.07,7.07,0,0,0,2.6-1.8c1.9-2.06,1.6-5.8-.7-7.08a29.89,29.89,0,0,0-5.8-2.32c-2.8-.9-5.5-1.68-8.3-2.58a9.11,9.11,0,0,1-2.1-1.28A7.58,7.58,0,0,1,107.5,58a14.91,14.91,0,0,1,9-3.48,19,19,0,0,1,5.6.39c2.4.51,4.7,2.19,6.7,3.47a23.42,23.42,0,0,1-1.6,1.93,31.53,31.53,0,0,0-4.3-2.57,12.14,12.14,0,0,0-9.5-.26,7.26,7.26,0,0,0-2.9,2.06c-1.8,2.19-1.5,5.41.8,6.69a38.73,38.73,0,0,0,5.4,2.06c2.8.91,5.6,1.42,8.3,2.45a8.91,8.91,0,0,1,3.4,2.32c2.4,2.31,2.7,5.79.8,8.88a10,10,0,0,1-6.1,4.63A19.65,19.65,0,0,1,104.7,83C104.6,82.83,104.4,82.7,104.2,82.44Z" transform="translate(-11.7 -47.18)"/><path d="M239.2,86.82h-4.3c-.2,0-.5-.39-.6-.77-1-2.45-2-4.76-3-7.21-.3-.64-.6-1-1.2-.9H215.5c-.6,0-.9.26-1.1.9l-3,7.34a1,1,0,0,1-1,.77h-2.3a8.73,8.73,0,0,0,.4-1C212.7,76,217,66.1,221.2,56.18c.3-.64.5-.9,1.1-.9h3a1.16,1.16,0,0,1,.8.52L239,86.31C239.1,86.31,239.2,86.56,239.2,86.82ZM215.9,75.24H230c-2.3-5.54-4.6-10.95-7-16.48C220.7,64.29,218.3,69.7,215.9,75.24Z" transform="translate(-11.7 -47.18)"/><path d="M23.2,48a8.43,8.43,0,0,1,6.4,3.6c.7.9,1.3,1.9,1.9,2.8,3.5,6.3,6.3,12.9,9.3,19.5a33.31,33.31,0,0,0,4.4,7.8,4.35,4.35,0,0,1,.6.7,5.9,5.9,0,0,0,.4-.8C51.5,71,56.7,60.5,61.9,50a1.46,1.46,0,0,1,2-1c-.1.2-.1.4-.2.6L47.2,84.4c-.4.9-1.8,1-2.9.2a14.32,14.32,0,0,1-3.6-4.5c-1.9-3.8-3.7-7.7-5.5-11.5-2.3-4.9-4.2-10-6.9-14.7a15.93,15.93,0,0,0-4.7-5.3A1.27,1.27,0,0,0,23.2,48Z" transform="translate(-11.7 -47.18)"/><path d="M152.4,86.69H148V57.47H136.4V55h27.3v2.44H152.3C152.4,67.25,152.4,77,152.4,86.69Z" transform="translate(-11.7 -47.18)"/><path d="M44.5,89A5.65,5.65,0,0,1,37,91.5a13,13,0,0,1-3.3-2.9c-2.3-2.7-3.6-5.9-5-9.1-3-6.7-5.8-13.5-8.7-20.2-.4-.9-.8-1.7-1.2-2.6-1.7-3.6-3.6-7.1-7.1-9.5a6.46,6.46,0,0,1,4.1,1,12.39,12.39,0,0,1,3.8,4.4,106.45,106.45,0,0,1,6.3,13.2c2.3,5.4,4.5,10.8,6.8,16.1a17.8,17.8,0,0,0,3.6,5.7C38.8,89.9,41.3,90.6,44.5,89Z" transform="translate(-11.7 -47.18)"/><path d="M17.5,47.5A6.18,6.18,0,0,1,23,50a26.58,26.58,0,0,1,4.2,6.8c3.1,6.9,6.1,13.8,9.4,20.7a36.35,36.35,0,0,0,3.3,5.8A6.28,6.28,0,0,0,41,84.5c1.4,1.4,2.4,2.3,4.7,1.9a3.2,3.2,0,0,1-3.8,1.5,8,8,0,0,1-4.5-3.1,57,57,0,0,1-6.2-11.7c-2.2-5.3-4.1-10-6.4-15.3-.2-.5-1.4-2.8-2-3.8C21,50.5,20.4,49.8,17.5,47.5Z" transform="translate(-11.7 -47.18)"/></svg>