<svg id="Слой_1" data-name="Слой 1" xmlns="http://www.w3.org/2000/svg" viewBox="0 0 228.56 44.84"><path d="M192.67,74l9.09,10.63-3.18,0A2.65,2.65,0,0,1,196,83.39c-2.14-2.93-4.41-5.77-6.6-8.66a1.29,1.29,0,0,0-1.18-.58c-3.13,0-6.25,0-9.47,0V84.5h-4.25V60h.85c4.93,0,10.12,0,15.06,0a13.84,13.84,0,0,1,6.73,1.58c2,1,3.72,2.81,3.81,5.11a5.56,5.56,0,0,1-3,5.22,15.66,15.66,0,0,1-2.63,1.21C194.56,73.45,193.67,73.66,192.67,74ZM178.8,72.1c.19,0,.32.06.45.06,3.77,0,7.53.06,11.3-.08a10.2,10.2,0,0,0,3.63-1,4.23,4.23,0,0,0,2.6-4A4.42,4.42,0,0,0,194.29,63a9,9,0,0,0-4.44-1.16h-10.3c-.24,0-.48,0-.75.05Z" transform="translate(-11.68 -47.22)"/><path d="M93.08,70.91v1.85h-16v9.88H96.57v1.91H72.81V60H96.07v1.8H77.12v9.15Z" transform="translate(-11.68 -47.22)"/><path d="M105.16,81.21l2-1.55c5,3.3,10.26,4.41,16,2.88a7.07,7.07,0,0,0,2.59-1.42,3.22,3.22,0,0,0-.7-5.54,39.66,39.66,0,0,0-5.77-1.77c-2.76-.72-5.55-1.31-8.3-2a8.06,8.06,0,0,1-2.1-1,5,5,0,0,1-.38-8.6,17.3,17.3,0,0,1,9-2.7,23.79,23.79,0,0,1,5.58.34,25.09,25.09,0,0,1,6.72,2.72l-1.6,1.55a40.84,40.84,0,0,0-4.26-2,15.39,15.39,0,0,0-9.49-.2,7.72,7.72,0,0,0-2.93,1.64,3,3,0,0,0,.76,5.18,30.86,30.86,0,0,0,5.39,1.56c2.77.66,5.59,1.13,8.34,1.89a10.51,10.51,0,0,1,3.42,1.8,4.59,4.59,0,0,1,.84,6.94,9.94,9.94,0,0,1-6.12,3.56c-6.47,1.36-12.67.71-18.4-2.84C105.56,81.51,105.39,81.38,105.16,81.21Z" transform="translate(-11.68 -47.22)"/><path d="M240.24,84.59c-1.49,0-2.89,0-4.29,0-.22,0-.48-.32-.61-.56-1-1.87-2-3.74-3-5.64a1.14,1.14,0,0,0-1.19-.75q-7.28,0-14.55,0a1.1,1.1,0,0,0-1.14.71c-1,1.9-2,3.77-3,5.66a.92.92,0,0,1-1,.58c-.72,0-1.43,0-2.3,0,.16-.34.26-.58.38-.8Q216,72.17,222.32,60.6a1,1,0,0,1,1.09-.66c1,.05,2,0,3,0a1,1,0,0,1,.75.44q6.48,11.85,12.91,23.7A3.13,3.13,0,0,1,240.24,84.59Zm-23.3-9H231c-2.33-4.28-4.62-8.47-7-12.77Z" transform="translate(-11.68 -47.22)"/><path d="M23.19,48a8.6,8.6,0,0,1,6.39,3.57,24.49,24.49,0,0,1,1.88,2.84C35,60.72,37.78,67.36,40.79,73.9a32.3,32.3,0,0,0,4.42,7.77c.18.21.37.41.62.68.17-.32.32-.56.45-.82Q54.11,65.76,61.93,50c.44-.89.92-1.32,2-1-.07.18-.12.38-.2.57L47.24,84.33c-.43.9-1.81,1-2.86.19A13,13,0,0,1,40.79,80q-2.8-5.75-5.5-11.54c-2.27-4.92-4.17-10-6.94-14.71a16.62,16.62,0,0,0-4.68-5.32Z" transform="translate(-11.68 -47.22)"/><path d="M153.43,84.54h-4.38V61.82H137.49V59.9h27.33v1.89H153.43Z" transform="translate(-11.68 -47.22)"/><path d="M44.46,89c-1.54,2.77-5,3.93-7.54,2.46a12.82,12.82,0,0,1-3.29-2.86,34.68,34.68,0,0,1-5-9C25.73,72.77,22.87,66,20,59.27c-.37-.87-.8-1.71-1.2-2.56-1.68-3.59-3.63-7.05-7.11-9.48a6.68,6.68,0,0,1,4.14,1,13.21,13.21,0,0,1,3.84,4.37A110.56,110.56,0,0,1,26,65.76c2.27,5.38,4.51,10.77,6.84,16.13a17.54,17.54,0,0,0,3.63,5.72C38.76,89.88,41.29,90.6,44.46,89Z" transform="translate(-11.68 -47.22)"/><path d="M17.52,47.45A6.4,6.4,0,0,1,23.06,50a26.87,26.87,0,0,1,4.22,6.84c3.14,6.88,6.07,13.85,9.36,20.65A39.66,39.66,0,0,0,40,83.27,13.8,13.8,0,0,0,41,84.48c1.36,1.45,2.43,2.34,4.7,1.89a3.19,3.19,0,0,1-3.83,1.49,7.87,7.87,0,0,1-4.47-3.14A57.9,57.9,0,0,1,31.28,73c-2.18-5.33-4.14-10-6.4-15.27-.22-.48-1.38-2.76-2-3.8A16.72,16.72,0,0,0,17.52,47.45Z" transform="translate(-11.68 -47.22)"/></svg>